<?xml version="1.0" standalone="no"?>
<!DOCTYPE svg PUBLIC "-//W3C//DTD SVG 20010904//EN"
 "http://www.w3.org/TR/2001/REC-SVG-20010904/DTD/svg10.dtd">
<svg version="1.0" xmlns="http://www.w3.org/2000/svg"
 width="256.000000pt" height="256.000000pt" viewBox="0 0 256.000000 256.000000"
 preserveAspectRatio="xMidYMid meet">
<metadata>
Created by potrace 1.11, written by Peter Selinger 2001-2013
</metadata>
<g transform="translate(0.000000,256.000000) scale(0.100000,-0.100000)"
fill="#000000" stroke="none">
<path d="M1130 2553 c-578 -83 -1019 -508 -1114 -1073 -19 -109 -14 -336 8
-448 101 -497 469 -875 980 -1003 92 -24 374 -34 461 -18 28 5 59 11 70 13
336 64 662 294 844 599 54 91 124 253 137 320 2 11 8 34 13 51 18 57 22 100
26 261 4 220 -25 367 -106 543 -16 35 -29 65 -29 68 0 9 -67 114 -115 179 -63
86 -186 206 -280 275 -135 99 -383 202 -540 225 -55 8 -315 14 -355 8z"/>
</g>
</svg>
